<svg
   xmlns:dc="http://purl.org/dc/elements/1.1/"
   xmlns:cc="http://creativecommons.org/ns#"
   xmlns:rdf="http://www.w3.org/1999/02/22-rdf-syntax-ns#"
   xmlns:svg="http://www.w3.org/2000/svg"
   xmlns="http://www.w3.org/2000/svg"
   height="57.889763"
   width="57.889763"
   xml:space="preserve"
   viewBox="0 0 57.889763 57.889763"
   y="0px"
   x="0px"
   id="Capa_1"
   version="1.1"><metadata
   id="metadata3720"><rdf:RDF><cc:Work
       rdf:about=""><dc:format>image/svg+xml</dc:format><dc:type
         rdf:resource="http://purl.org/dc/dcmitype/StillImage" /><dc:title></dc:title></cc:Work></rdf:RDF></metadata><defs
   id="defs3718" />
	 <path
   style="opacity:1;fill:#000000;fill-opacity:1;stroke:#000000;stroke-width:1.88976383;stroke-opacity:1"
   id="path3713"
   d="m 28.944882,0.94488192 c -15.439,0 -28.00000008,12.56100008 -28.00000008,28.00000008 0,15.439 12.56100008,28 28.00000008,28 15.439,0 28,-12.561 28,-28 0,-15.439 -12.561,-28.00000008 -28,-28.00000008 z m 0,54.00000008 c -14.337,0 -26.0000001,-11.664 -26.0000001,-26 0,-14.336 11.6630001,-26.0000001 26.0000001,-26.0000001 14.337,0 26,11.6640001 26,26.0000001 0,14.336 -11.663,26 -26,26 z m 12,-38 h -24 c -0.553,0 -1,0.448 -1,1 0,0.552 0.447,1 1,1 h 24 c 0.553,0 1,-0.448 1,-1 0,-0.552 -0.447,-1 -1,-1 z m 0,11 h -24 c -0.553,0 -1,0.448 -1,1 0,0.552 0.447,1 1,1 h 24 c 0.553,0 1,-0.448 1,-1 0,-0.552 -0.447,-1 -1,-1 z m 0,11 h -24 c -0.553,0 -1,0.448 -1,1 0,0.552 0.447,1 1,1 h 24 c 0.553,0 1,-0.448 1,-1 0,-0.552 -0.447,-1 -1,-1 z" />
</svg>